<svg width="40px" height="40px" viewBox="-3.2 -3.2 38.40 38.40" enable-background="new 0 0 32 32" version="1.1" xml:space="preserve" xmlns="http://www.w3.org/2000/svg" xmlns:xlink="http://www.w3.org/1999/xlink" fill="#000000"><g id="SVGRepo_bgCarrier" stroke-width="0"><rect x="-3.2" y="-3.2" width="38.40" height="38.40" rx="19.2" fill="#ff6600" strokewidth="0"></rect></g><g id="SVGRepo_tracerCarrier" stroke-linecap="round" stroke-linejoin="round"></g><g id="SVGRepo_iconCarrier"> <g id="Home"></g> <g id="Print"></g> <g id="Mail"></g> <g id="Camera"></g> <g id="Video"></g> <g id="Film"></g> <g id="Message"></g> <g id="Telephone"></g> <g id="User"></g> <g id="File"></g> <g id="Folder"></g> <g id="Map"></g> <g id="Download"></g> <g id="Upload"></g> <g id="Video_Recorder"></g> <g id="Schedule"></g> <g id="Cart"></g> <g id="Setting"></g> <g id="Search"></g> <g id="Pencils"></g> <g id="Group"></g> <g id="Record"></g> <g id="Headphone"></g> <g id="Music_Player"></g> <g id="Sound_On"></g> <g id="Sound_Off"></g> <g id="Lock"></g> <g id="Lock_open"></g> <g id="Love"></g> <g id="Favorite"></g> <g id="Film_1_"></g> <g id="Music"></g> <g id="Puzzle"></g> <g id="Turn_Off"></g> <g id="Book"></g> <g id="Save"></g> <g id="Reload"></g> <g id="Trash"></g> <g id="Tag"></g> <g id="Link"></g> <g id="Like"></g> <g id="Bad"></g> <g id="Gallery"></g> <g id="Add"></g> <g id="Close"></g> <g id="Forward"></g> <g id="Back"></g> <g id="Buy"></g> <g id="Mac"> <path d="M28,3H16H4C2.3,3,1,4.3,1,6v14c0,1.6,1.3,3,3,3h7v4H9c-0.5,0-1,0.5-1,1s0.5,1,1,1h7h7c0.5,0,1-0.5,1-1 s-0.5-1-1-1h-2v-4h7c1.7,0,3-1.4,3-3V6C31,4.3,29.7,3,28,3z" fill="#3c3e3e"></path> <path d="M28,3H16v2v11v7v6h7c0.5,0,1-0.5,1-1s-0.5-1-1-1h-2v-4h7c1.7,0,3-1.4,3-3V6C31,4.3,29.7,3,28,3z" fill="#3c3e3e"></path> <path d="M23,27h-2v-4h-5h-5v4H9c-0.5,0-1,0.5-1,1s0.5,1,1,1h7h7c0.5,0,1-0.5,1-1S23.5,27,23,27z" fill="#535257"></path> <path d="M28,5H16H4C3.5,5,3,5.5,3,6v10h13h13V6C29,5.5,28.5,5,28,5z" fill="#46bd2e"></path> </g> <g id="Laptop"></g> </g></svg>