<svg version="1.1" preserveAspectRatio="none" xmlns="http://www.w3.org/2000/svg" width="500" height="500" viewBox="0 0 500 500"><rect width="100%" height="100%" fill="#1A1A1A" fill-opacity="1"/><svg viewBox="575 344.1782 380 67.1436" width="417" height="73.68126631578947" x="41.5px" y="213.1594px" xmlns="http://www.w3.org/2000/svg" xmlns:xlink="http://www.w3.org/1999/xlink" preserveAspectRatio="none"><defs></defs><style>.aa8WAvAAzmecolorcab566b2-30a4-4c2e-862c-9122c9d364d2 {fill:#D9D9D9;fill-opacity:1;}.aD6z1nYkhcolorcab566b2-30a4-4c2e-862c-9122c9d364d2 {fill:#FFFFFF;fill-opacity:1;}.aD6z1nYkhstrokeColor-strcab566b2-30a4-4c2e-862c-9122c9d364d2 {stroke:#D9D9D9;stroke-opacity:1;}.aLgOaV3zRcolors-0cab566b2-30a4-4c2e-862c-9122c9d364d2 {fill:#DF5B48;fill-opacity:1;}.aLgOaV3zRcolors-1cab566b2-30a4-4c2e-862c-9122c9d364d2 {fill:#D9D9D9;fill-opacity:1;}.aLgOaV3zRcolors-2cab566b2-30a4-4c2e-862c-9122c9d364d2 {fill:#696969;fill-opacity:1;}.aLgOaV3zRcolors-3cab566b2-30a4-4c2e-862c-9122c9d364d2 {fill:#000000;fill-opacity:1;}.aLgOaV3zRcolors-4cab566b2-30a4-4c2e-862c-9122c9d364d2 {fill:#434242;fill-opacity:1;}.aLgOaV3zRcolors-5cab566b2-30a4-4c2e-862c-9122c9d364d2 {fill:#908E8E;fill-opacity:1;}.aLgOaV3zRcolors-6cab566b2-30a4-4c2e-862c-9122c9d364d2 {fill:#B8B7B7;fill-opacity:1;}.aLgOaV3zRcolors-7cab566b2-30a4-4c2e-862c-9122c9d364d2 {fill:#D7FFD9;fill-opacity:1;}.icon3-strcab566b2-30a4-4c2e-862c-9122c9d364d2 {stroke:#696969;stroke-opacity:1;}</style><g opacity="1" transform="rotate(0 710.3728 344.1782)">
<svg width="56.8665" height="67.1436" x="710.3728" y="344.1782" version="1.1" preserveAspectRatio="none" viewBox="32.458580017089844 19.999998092651367 135.3414306640625 159.79998779296875">
  <g transform="matrix(-1 0 0 1 200.2585906982422 0)" ><g><path d="M167.5 109.2v-.5l-40.6-70c-.2-.3-.5-.5-.8-.5H94L75.4 20.3s-.1 0-.1-.1l-.1-.1c-.1 0-.2-.1-.3-.1h-.5c-.1 0-.1 0-.2.1L44.4 38.3c-.1.1-.2.1-.2.2-.2.2-.2.3-.2.4L32.5 89.7v.4c-.1.2 0 .5.1.7l41.2 70.4c0 .1.1.1.1.2.1.1.3.2.4.2H110l15.3 17.9c.1.1.2.2.3.2h.1c.1 0 .2.1.4.1h.3c.1 0 .1 0 .2-.1h.1l29.8-18.2.1-.1c.1 0 .1-.1.2-.1l.1-.1c0-.1.1-.1.1-.2v-.1l10.8-51.8c-.3.2-.3.2-.3.1zM155 159.9h-16.8l26.2-45.2-9.4 45.2zm-2.6 1.9l-23.7 14.4 8.4-14.4h15.3zM99 146.2L36.2 91l126.7 18.5L99 146.2zm-24 13.4L36.6 93.9l60.6 53.3L75 159.6zm-29.5-119l12.2 7L35.6 85l9.9-44.4zM60.4 47l4.1-6.9h28.8l67.5 64.8L60.4 47zm100.8 60.3L35.5 88.9l23.9-40.3 101.8 58.7zM58.7 46l-10.2-5.9h13.7L58.7 46zm-10.4-7.8l23.6-14.4-8.5 14.4H48.3zm116.1 72.7l-28.4 49h-25.1l-10.5-12.3 64-36.7zm-39-70.8l36.9 63.6L96 40.1h29.4zm-59.8-1.9l9.3-15.7 16.4 15.7H65.6zm12.8 121.7l20.3-11.3 9.7 11.3h-30zm56.5 1.9l-9 15.6-13.3-15.6h22.3z" data-color="1" class="aLgOaV3zRcolors-0cab566b2-30a4-4c2e-862c-9122c9d364d2"></path></g></g>
</svg>
</g><g opacity="1" transform="rotate(0 575 346.1575)">
<svg width="114.3112" height="63.185" x="575" y="346.1575" version="1.1" preserveAspectRatio="none" viewBox="2.16 -28 50.64 28">
  <g transform="matrix(1 0 0 1 0 0)" class="aD6z1nYkhcolorcab566b2-30a4-4c2e-862c-9122c9d364d2"><path id="id-cab566b2-30a4-4c2e-862c-9122c9d364d2D6z1nYkh3" d="M2.64 0Q2.44 0 2.30-0.14Q2.16-0.28 2.16-0.48L2.16-0.48L2.16-27.52Q2.16-27.72 2.30-27.86Q2.44-28 2.64-28L2.64-28L6.32-28Q6.52-28 6.66-27.86Q6.80-27.72 6.80-27.52L6.80-27.52L6.80-0.48Q6.80-0.28 6.66-0.14Q6.52 0 6.32 0L6.32 0L2.64 0Z M28.68-28Q28.88-28 29.02-27.86Q29.16-27.72 29.16-27.52L29.16-27.52L29.16-24.48Q29.16-24.28 29.02-24.14Q28.88-24 28.68-24L28.68-24L23.60-24Q23.40-24 23.40-23.80L23.40-23.80L23.40-0.48Q23.40-0.28 23.26-0.14Q23.12 0 22.92 0L22.92 0L19.24 0Q19.04 0 18.90-0.14Q18.76-0.28 18.76-0.48L18.76-0.48L18.76-23.80Q18.76-24 18.56-24L18.56-24L13.76-24Q13.56-24 13.42-24.14Q13.28-24.28 13.28-24.48L13.28-24.48L13.28-27.52Q13.28-27.72 13.42-27.86Q13.56-28 13.76-28L13.76-28L28.68-28Z M36.00 0Q35.80 0 35.66-0.14Q35.52-0.28 35.52-0.48L35.52-0.48L35.52-27.52Q35.52-27.72 35.66-27.86Q35.80-28 36.00-28L36.00-28L39.64-28Q40.04-28 40.20-27.64L40.20-27.64L44.04-19Q44.16-18.76 44.28-19L44.28-19L48.08-27.64Q48.24-28 48.64-28L48.64-28L52.32-28Q52.52-28 52.66-27.86Q52.80-27.72 52.80-27.52L52.80-27.52L52.80-0.48Q52.80-0.28 52.66-0.14Q52.52 0 52.32 0L52.32 0L48.64 0Q48.44 0 48.30-0.14Q48.16-0.28 48.16-0.48L48.16-0.48L48.16-17.92Q48.16-18.08 48.08-18.08Q48.00-18.08 47.92-17.96L47.92-17.96L44.48-10.96Q44.32-10.60 44.16-10.60L44.16-10.60Q44.04-10.60 43.84-10.96L43.84-10.96L40.40-18.04Q40.32-18.16 40.24-18.14Q40.16-18.12 40.16-17.96L40.16-17.96L40.16-0.48Q40.16-0.28 40.02-0.14Q39.88 0 39.68 0L39.68 0L36.00 0Z"/></g>
</svg>
</g><g opacity="1" transform="rotate(0 788.301 344.1782)">
<svg width="166.699" height="63.185" x="788.301" y="344.1782" version="1.1" preserveAspectRatio="none" viewBox="1.12 -28.32 75.56 28.64">
  <g transform="matrix(1 0 0 1 0 0)" class="aa8WAvAAzmecolorcab566b2-30a4-4c2e-862c-9122c9d364d2"><path id="id-cab566b2-30a4-4c2e-862c-9122c9d364d2a8WAvAAzme4" d="M16.52-28Q16.72-28 16.86-27.86Q17-27.72 17-27.52L17-27.52L17-24.48Q17-24.28 16.86-24.14Q16.72-24 16.52-24L16.52-24L11.44-24Q11.24-24 11.24-23.80L11.24-23.80L11.24-0.48Q11.24-0.28 11.10-0.14Q10.96 0 10.76 0L10.76 0L7.08 0Q6.88 0 6.74-0.14Q6.60-0.28 6.60-0.48L6.60-0.48L6.60-23.80Q6.60-24 6.40-24L6.40-24L1.60-24Q1.40-24 1.26-24.14Q1.12-24.28 1.12-24.48L1.12-24.48L1.12-27.52Q1.12-27.72 1.26-27.86Q1.40-28 1.60-28L1.60-28L16.52-28Z M36.20-24.48Q36.20-24.28 36.06-24.14Q35.92-24 35.72-24L35.72-24L27.08-24Q26.88-24 26.88-23.80L26.88-23.80L26.88-16.24Q26.88-16.04 27.08-16.04L27.08-16.04L32.20-16.04Q32.40-16.04 32.54-15.90Q32.68-15.76 32.68-15.56L32.68-15.56L32.68-12.48Q32.68-12.28 32.54-12.14Q32.40-12 32.20-12L32.20-12L27.08-12Q26.88-12 26.88-11.80L26.88-11.80L26.88-4.20Q26.88-4 27.08-4L27.08-4L35.72-4Q35.92-4 36.06-3.86Q36.20-3.72 36.20-3.52L36.20-3.52L36.20-0.48Q36.20-0.28 36.06-0.14Q35.92 0 35.72 0L35.72 0L22.72 0Q22.52 0 22.38-0.14Q22.24-0.28 22.24-0.48L22.24-0.48L22.24-27.52Q22.24-27.72 22.38-27.86Q22.52-28 22.72-28L22.72-28L35.72-28Q35.92-28 36.06-27.86Q36.20-27.72 36.20-27.52L36.20-27.52L36.20-24.48Z M48.68 0.32Q45.28 0.32 43.22-1.74Q41.16-3.80 41.16-7.20L41.16-7.20L41.16-20.84Q41.16-24.28 43.22-26.30Q45.28-28.32 48.68-28.32L48.68-28.32Q52.12-28.32 54.20-26.30Q56.28-24.28 56.28-20.84L56.28-20.84L56.28-20.36Q56.28-20.16 56.14-20Q56-19.84 55.80-19.84L55.80-19.84L52.08-19.68Q51.60-19.68 51.60-20.16L51.60-20.16L51.60-21.16Q51.60-22.56 50.80-23.44Q50-24.32 48.68-24.32L48.68-24.32Q47.40-24.32 46.60-23.44Q45.80-22.56 45.80-21.16L45.80-21.16L45.80-6.84Q45.80-5.44 46.60-4.56Q47.40-3.68 48.68-3.68L48.68-3.68Q50-3.68 50.80-4.56Q51.60-5.44 51.60-6.84L51.60-6.84L51.60-7.84Q51.60-8.04 51.74-8.18Q51.88-8.32 52.08-8.32L52.08-8.32L55.80-8.16Q56-8.16 56.14-8.02Q56.28-7.88 56.28-7.68L56.28-7.68L56.28-7.20Q56.28-3.80 54.20-1.74Q52.12 0.32 48.68 0.32L48.68 0.32Z M72.04-27.52Q72.04-27.72 72.18-27.86Q72.32-28 72.52-28L72.52-28L76.20-28Q76.40-28 76.54-27.86Q76.68-27.72 76.68-27.52L76.68-27.52L76.68-0.48Q76.68-0.28 76.54-0.14Q76.40 0 76.20 0L76.20 0L72.52 0Q72.32 0 72.18-0.14Q72.04-0.28 72.04-0.48L72.04-0.48L72.04-11.80Q72.04-12 71.84-12L71.84-12L66.76-12Q66.56-12 66.56-11.80L66.56-11.80L66.56-0.48Q66.56-0.28 66.42-0.14Q66.28 0 66.08 0L66.08 0L62.40 0Q62.20 0 62.06-0.14Q61.92-0.28 61.92-0.48L61.92-0.48L61.92-27.52Q61.92-27.72 62.06-27.86Q62.20-28 62.40-28L62.40-28L66.08-28Q66.28-28 66.42-27.86Q66.56-27.72 66.56-27.52L66.56-27.52L66.56-16.24Q66.56-16.04 66.76-16.04L66.76-16.04L71.84-16.04Q72.04-16.04 72.04-16.24L72.04-16.24L72.04-27.52Z"/></g>
</svg>
</g></svg></svg>