<svg width="100%" height="100%" id="svg" viewBox="0 0 1440 590" xmlns="http://www.w3.org/2000/svg" class="transition duration-300 ease-in-out delay-150"><path d="M 0,600 C 0,600 0,200 0,200 C 76.30622009569379,231.1866028708134 152.61244019138758,262.3732057416268 246,274 C 339.3875598086124,285.6267942583732 449.8564593301436,277.6937799043062 549,240 C 648.1435406698564,202.3062200956938 735.9617224880382,134.85167464114835 831,136 C 926.0382775119618,137.14832535885165 1028.2966507177034,206.89952153110045 1131,229 C 1233.7033492822966,251.10047846889955 1336.8516746411483,225.55023923444978 1440,200 C 1440,200 1440,600 1440,600 Z" stroke="none" strokeWidth="0" fill="#ff6900" fill-opacity="0.53" class="transition-all duration-300 ease-in-out delay-150 path-0" data-darkreader-inline-stroke="" style="--darkreader-inline-stroke:none; --darkreader-inline-fill:#cc5400;" data-darkreader-inline-fill=""></path><path d="M 0,600 C 0,600 0,400 0,400 C 116.79425837320574,448.9856459330143 233.58851674641147,497.9712918660287 326,472 C 418.41148325358853,446.0287081339713 486.4401913875598,345.10047846889955 576,330 C 665.5598086124402,314.89952153110045 776.6507177033493,385.6267942583732 879,399 C 981.3492822966507,412.3732057416268 1074.956937799043,368.39234449760767 1167,359 C 1259.043062200957,349.60765550239233 1349.5215311004786,374.8038277511962 1440,400 C 1440,400 1440,600 1440,600 Z" stroke="none" strokeWidth="0" fill="#ff6900" fill-opacity="1" class="transition-all duration-300 ease-in-out delay-150 path-1" data-darkreader-inline-stroke="" style="--darkreader-inline-stroke:none; --darkreader-inline-fill:#cc5400;" data-darkreader-inline-fill=""></path></svg>